<svg xmlns="http://www.w3.org/2000/svg" id="Capa_1" viewBox="0 0 500 262.6"><defs><style>      .st0 {        fill: #aa182c;        stroke: #fff;        stroke-miterlimit: 10;      }      .st1 {        fill: #ffc600;      }      .st2 {        fill: #fff;      }    </style></defs><path class="st0" d="M487.2,104.1h0c0-4-1.4-7.6-4-10.4-.4-.4-.8-.8-1.3-1.2.2-.6.4-1.2.6-1.8.9-3.3,1.5-6.1,1.7-7.3.1-.5.2-1.1.2-1.6,0-.1,0-.2,0-.3,1.2-12.3-7-18.3-14.4-19.9,0,0,0,0,0,0-4.2-1-9.2-1.3-15.3-.8-1.8.1-3.5.3-5,.5-38.3-32.1-111.9-50.8-195.1-45.4-38.7,2.5-74.8,10-105.8,20.9-.8-.1-1.7-.3-2.6-.4-13.1-1.8-28.8-1.4-45.3,1.1-15.4,2.3-30.8,6.4-44.4,11.7-6.9,2.7-13.1,5.6-18.5,8.7-5.9,3.4-10.8,7-14.6,10.7-5.1,5-8.8,10.8-10.6,16.9-1,3.3-1.4,6.6-1.3,9.8.1,3.4.8,6.7,2.1,9.8,1.5,3.5,3.6,6.5,6.4,9.1,2.7,2.5,5.9,4.5,9.5,5.9,4.1,1.7,8.8,2.6,14,2.9-6.4,13.5-11.2,27.7-14.3,42.2-3.6,16.6-4.8,33.2-3.7,49.2,0,.2,0,.4,0,.5.9,19.1,12.9,31.6,35.7,34.2,2.6.3,5.4.4,8.3.4s4.9,0,7.4-.2c5.9-.4,12.4-1.2,19.4-2.4,12-2,23.7-6.4,35-13,5.2-3,10.2-6.5,14.9-10.4.2-.1.3-.3.5-.4,34.8,9,76,12.9,120,10,80.3-5.2,149.2-31.7,184.9-66.6,1.8-.9,3.5-1.9,5.2-3,4.5-3,8.4-6.6,11.6-10.8,3.4-4.5,5.9-9.5,7.4-14.8,1.4-5,1.7-9.9.8-14.6-.3-1.6-.7-3.1-1.3-4.6,3-.4,5.7-1.9,7.8-4.1,2.6-2.8,4-6.5,4-10.4"></path><path class="st1" d="M257.3,37.2c72.8-4.7,137.7,7,175.7,28.7,1.9-.8,3.9-1.5,5.9-2.2-37.1-28.1-105.4-44.2-182.4-39.2-33.2,2.2-64.3,8-91.6,16.6,5.3,2.1,10,4.7,13.9,7.8,24.1-5.8,50.6-9.9,78.5-11.7"></path><path class="st1" d="M427.2,172.4h0c-2.5,0-4.9-.2-7.2-.6-36.8,20.5-91.3,35.5-152.8,39.5-37.4,2.4-72.7.5-103.4-4.9-1.4,1.7-2.8,3.4-4.3,5-1.5,1.6-3.1,3.2-4.7,4.8,32.9,8.1,71.8,11.5,113.1,8.8,69.2-4.5,129.5-25.1,165.5-53-2,.2-4.1.4-6.1.4"></path><path class="st2" d="M264,76.5s-1,4.1,2.1,3.3c0,0,2.7-.4,7.5-6.5,0,0,.3-.2.4,0,.8,1.8,0,2.5,0,2.5-6.8,12.1-16.9,7.5-17.2,0-.3-8.6,9.4-23.3,12.5-27.6,2-2.8,5.1-5.9,10.6-6.7,0,0,.6,0,.4.5,0,0-13.8,21.9-16.4,34.5"></path><path class="st2" d="M314.7,57.1c-.3.4-1,.4-.9-.3,0,0,1-4.4-2.9-4.2-3.9.2-6.2,3.4-4.5,5.4,2.5,2.9,9.5,5,7.8,11.3-1.5,5.4-7.1,8.9-13,8.9-9,0-10.7-10.6-2.2-12.7,1.9-.5.3.5.3.5-3.8,2.8-.3,11.2,6.3,7.9,4.1-2.7,3.7-6.1,1.7-7.9-1.6-1.4-3.3-2.5-4.8-3.5-5.2-3.7-1.6-9.8,6.4-11.7,0,0,5-1.1,7.7,0,0,0,.3.2.2.6,0,0-.5,3.8-2.2,5.5"></path><path class="st2" d="M290.2,72.4c-1,2.5-.2,6.7,5-1.2.7-1.1,1,0,.6,1-3.3,8.8-12.5,10-11.2,1.9,0-.4-.2-.4-.3-.1-1.2,3.1-4.6,6.8-8.3,6.9-3.4,0-7.9-4.3-3.4-14.5,3.1-7,9.7-12.9,15.9-12.9,1.5,0,2.6,1.3,2.6,1.3,0,0,.2.2.4,0,.4-.2.3-1.2,2-1.6,0,0,2-.5,4-.5,0,0,.5,0,.3.4,0,0-6.3,16-7.6,19.2M286.3,56.6c-4.4,3.4-7.3,9.4-8.5,13.1-1.6,4.9.9,7.1,4.2,3.8,6-5.6,8.8-15.8,8.2-17-.5-.9-1.9-1.3-3.8.2"></path><path class="st2" d="M481.5,104.1c0,4.8-3.5,8.6-8,8.6-4.5,0-8.1-3.8-8.1-8.5,0-4.8,3.6-8.5,8.1-8.5,4.4,0,8,3.7,8,8.5M467.4,104.2c0,3.8,2.6,6.8,6.1,6.8,3.4,0,6-3,6-6.8,0-3.8-2.6-6.8-6.1-6.8-3.4,0-6,3.1-6,6.8M472.3,108.6h-1.8v-8.5c.7-.1,1.7-.3,3-.3,1.5,0,2.1.3,2.7.7.5.4.8,1,.8,1.8s-.7,1.7-1.6,2h0c.8.4,1.1,1,1.4,2.2.2,1.3.4,1.8.6,2.1h-1.9c-.2-.3-.4-1-.6-2.1-.1-.9-.6-1.3-1.6-1.3h-.9v3.4ZM472.3,103.8h.9c1,0,1.8-.4,1.8-1.3,0-.8-.5-1.3-1.7-1.3s-.8,0-1,.1v2.4Z"></path><path class="st2" d="M481.5,104.1c0,4.8-3.5,8.6-8,8.6-4.5,0-8.1-3.8-8.1-8.5,0-4.8,3.6-8.5,8.1-8.5,4.4,0,8,3.7,8,8.5M467.4,104.2c0,3.8,2.6,6.8,6.1,6.8,3.4,0,6-3,6-6.8,0-3.8-2.6-6.8-6.1-6.8-3.4,0-6,3.1-6,6.8M472.3,108.6h-1.8v-8.5c.7-.1,1.7-.3,3-.3,1.5,0,2.1.3,2.7.7.5.4.8,1,.8,1.8s-.7,1.7-1.6,2h0c.8.4,1.1,1,1.4,2.2.2,1.3.4,1.8.6,2.1h-1.9c-.2-.3-.4-1-.6-2.1-.1-.9-.6-1.3-1.6-1.3h-.9v3.4ZM472.3,103.8h.9c1,0,1.8-.4,1.8-1.3,0-.8-.5-1.3-1.7-1.3s-.8,0-1,.1v2.4Z"></path><path class="st2" d="M146.6,122.4c56,7.6,11.4,95.9-54.6,107.2-41.3,7.1-55.3-1.8-56.3-16-4.3-62,30.4-124.6,66.1-143.9,7.5-3,18.5-5.5,31.7-6.7-48.8,23.8-69.5,107.2-69.2,139.3,0,4.1-.4,9.2,4.7,11.3,48.9,15.1,111.5-76.1,37.9-81.9-2.8-1.4-2.9-3.3,1.1-4.7,48-13,70.1-71.1,23.5-73.2-40.7-1.9-112.7,37.1-75.5,55.5,2.1.7,1.4,1.9-2.1,2.3-33,4.1-40.3-18.8-23.7-35,25.9-25.2,118-45,145.3-16.4,15.1,13.2,8.9,46.6-29,62.1"></path><path class="st2" d="M391.8,133.2c-2.7,10.7-2.3,15.9,2.3,16.2,0,0,7.5-.4,12.7-11,1.8-3.6,3,1.5,1.1,3.8-14.1,16.5-21.1,18.6-25.9,18.2-9.6-.7-9.9-11.9-8.6-17.3.3-1.3-.5-1.3-.9-.3-3.6,9.4-13.8,20.6-24.9,20.8-10.1.2-23.8-13-10.1-43.7,9.3-21,29.9-40.4,48.5-40.5,4.7,0,7.9,4,7.9,4,0,0,.5.7,1.2.3,1.2-.5.8-3.6,6-4.9,0,0,6.1-1.5,12-1.4,0,0,1.4,0,.8,1.2,0,0-19.8,46-22.1,54.8M379.3,89.1c-13.4,10.2-22.7,29.9-26.3,41-4.8,14.8,2.6,21.4,12.5,11.3,18-16.8,27.2-49.3,25.3-53-1.4-2.7-5.8-3.8-11.6.6"></path><path class="st2" d="M257.8,158.4c2.8,8.4,10.8,2.7,15.2-9.2,0,0,5.1,0,.1,6.7-20.9,28.1-44,24.2-36.6-4.5,2.5-9.6,3.4-12.5,6.5-19.5,5.7-12,16.2-13.1,24.8-14,0,0,1.8-.3,1,1.1,0,0-15.4,25.3-11,39.4"></path><path class="st2" d="M261,113.8c-6.5.3-10.7-4.9-9.2-11.7,1.4-6.8,8.1-12.6,14.6-13,6.5-.3,10.7,4.9,9.3,11.7-1.4,6.8-7.9,12.6-14.6,13"></path><path class="st2" d="M328.7,106.4c-.9,1.2-3.1,1.3-2.6-.9,0,0,3-13.1-8.7-12.6-11.6.6-18.6,10.4-13.5,16.3,7.6,8.8,28.7,15,23.4,34.1-4.5,16.3-21.4,26.7-39.1,26.8-27.1,0-32.2-31.9-6.5-38.2,5.9-1.4,1,1.5,1,1.5-11.6,8.4-.8,33.8,19,23.9,12.3-8.1,11.3-18.3,5.1-23.7-4.9-4.3-12.6-9.5-17-12.6-15.7-11-2.2-27.5,21.7-33.2,0,0,15.1-3.2,23.2.2,0,0,.9.5.6,1.7,0,0-1.6,11.3-6.5,16.5"></path><path class="st2" d="M224.2,134.2c-2.1,0-1.6-.6-1-1.6,11.9-20.5-7.8-24-15.1-2.4-5.2,15.2-3.8,20.9-7.5,33.3-7.2,24.3-31.1,20.1-31.1,20.1-.4,0-1.3-.3-.6-.8,11-11,14.6-30.1,21.2-65.9,2.3-12.8,6.9-16.3,20.2-17.7,0,0,1.6-.4,1,1.6-1,3.3-1.2,4.7-1.3,7.5,0,.6.4,1,.9.4,0,0,8.8-16.7,25.3-10.6,15,5.5,9.1,36.3-12.1,36.2"></path><path class="st2" d="M464.1,91.2c-.9,1.2-3.1,1.3-2.6-.9,0,0,3-13.1-8.7-12.6-11.6.6-18.6,10.4-13.5,16.3,7.6,8.8,28.7,15,23.4,34.1-4.5,16.3-21.4,26.7-39.1,26.8-27.1,0-32.2-31.9-6.5-38.2,5.9-1.4,1,1.5,1,1.5-11.6,8.4-.8,33.8,19,23.9,12.3-8.1,11.3-18.3,5.1-23.7-4.9-4.3-12.6-9.5-17-12.6-15.7-11-2.2-27.5,21.7-33.2,0,0,15.1-3.2,23.2.2,0,0,.9.5.6,1.7,0,0-1.6,11.3-6.5,16.5"></path></svg>